<svg id="b648ca8e-3d3d-48f0-9a31-e8eb24255179" data-name="Layer 1" xmlns="http://www.w3.org/2000/svg" viewBox="0 0 38 48"><defs><style>.e4c09ccc-6db2-4c6b-a626-1afb1fae33ed{fill:#e9f5ff;}.f596c40e-26ce-4612-acd8-f27dfca69ce4{fill:#266abc;}</style></defs><title>Untitled-1</title><path class="e4c09ccc-6db2-4c6b-a626-1afb1fae33ed" d="M41.25,10.51l-9-9A5.1,5.1,0,0,0,28.63,0H9.78a5,5,0,0,0-5,5V43a5,5,0,0,0,5,5H37.7a5,5,0,0,0,5-5V14.11A5.1,5.1,0,0,0,41.25,10.51Z" transform="translate(-4.74)"/><path class="f596c40e-26ce-4612-acd8-f27dfca69ce4" d="M41.25,10.51l-9-9A5.1,5.1,0,0,0,28.63,0H9.78a5,5,0,0,0-5,5V43a5,5,0,0,0,5,5H37.7a5,5,0,0,0,5-5V14.11A5.1,5.1,0,0,0,41.25,10.51ZM38.74,14H31.56a2.82,2.82,0,0,1-2.82-2.82V4Zm0,26.94A3.06,3.06,0,0,1,35.68,44H11.8a3.06,3.06,0,0,1-3.06-3.06V7.06A3.06,3.06,0,0,1,11.8,4H24.74v8.83A5.16,5.16,0,0,0,29.91,18h8.83Z" transform="translate(-4.74)"/><rect class="f596c40e-26ce-4612-acd8-f27dfca69ce4" x="8" y="23" width="22" height="4" rx="2"/><rect class="f596c40e-26ce-4612-acd8-f27dfca69ce4" x="8" y="32" width="22" height="4" rx="2"/></svg>