<svg id="afdd96fb-b351-47f5-88f0-4509a6c367ae" data-name="Layer 1" xmlns="http://www.w3.org/2000/svg" viewBox="0 0 457.52 125.08"><defs><style>.e04e019b-79ac-4fcb-a0f6-a2c7b9c67308{opacity:0.14;}.a644610b-fbe5-4ce8-8267-e0333b40d53d{fill:none;stroke:#3b4144;stroke-miterlimit:10;}</style></defs><title>stroke_alvin</title><g class="e04e019b-79ac-4fcb-a0f6-a2c7b9c67308"><path class="a644610b-fbe5-4ce8-8267-e0333b40d53d" d="M52.41.5.76,119.5h21.5l9.58-23h39l9.06,23H105.3L53.65.5Zm-12.13,77L51.86,49.69l11,27.81Z"/><polygon class="a644610b-fbe5-4ce8-8267-e0333b40d53d" points="141.02 5.5 119.02 5.5 119.02 118.5 195.02 118.5 195.02 97.5 141.02 97.5 141.02 5.5"/><polygon class="a644610b-fbe5-4ce8-8267-e0333b40d53d" points="287.19 4.5 260.53 4.5 236.09 68.79 210.01 4.5 183.05 4.5 235.12 123.83 287.19 4.5"/><rect class="a644610b-fbe5-4ce8-8267-e0333b40d53d" x="305.02" y="4.5" width="22" height="114"/><polygon class="a644610b-fbe5-4ce8-8267-e0333b40d53d" points="377.02 51.46 455.95 123.5 457.02 123.5 457.02 4.5 434.02 4.5 434.02 73.55 354.75 0.5 354.02 0.5 354.02 118.5 377.02 118.5 377.02 51.46"/></g></svg>