<svg id="bb8c99f9-5e30-4a17-9a08-0503fd86bbd4" data-name="Layer 1" xmlns="http://www.w3.org/2000/svg" viewBox="0 0 894.05 124"><defs><style>.e46404c2-2084-495d-9f12-ffef0727f54e{opacity:0.14;}.f4b85e2a-e812-4757-91fc-5ee3b488d81f{fill:none;stroke:#3b4144;stroke-miterlimit:10;}</style></defs><title>stroke_benedicto</title><g class="e46404c2-2084-495d-9f12-ffef0727f54e"><path class="f4b85e2a-e812-4757-91fc-5ee3b488d81f" d="M59.24,58.43a29.76,29.76,0,0,0,8.41-7.69q5.17-7.05,5.18-17.58,0-14.25-10.53-21.46T34,4.5H.5v114h38a60.28,60.28,0,0,0,14.71-1.78A38.44,38.44,0,0,0,65.94,111a28.42,28.42,0,0,0,9-10.38q3.31-6.42,3.33-15.72A25.2,25.2,0,0,0,71.9,67.62,37.94,37.94,0,0,0,59.24,58.43ZM23.5,26.5H35.61q6.68,0,10.64,2.95t4,8.85A14.41,14.41,0,0,1,47,47.46q-3.18,4-9.86,4H23.5ZM53.5,93a13.27,13.27,0,0,1-6.41,4.22A28.93,28.93,0,0,1,38,98.5H23.5v-25h13a41.4,41.4,0,0,1,9.29,1A15.57,15.57,0,0,1,53,78.11c1.88,1.72,2.81,4.25,2.81,7.58A11.16,11.16,0,0,1,53.5,93Z"/><polygon class="f4b85e2a-e812-4757-91fc-5ee3b488d81f" points="121.5 72.5 170.5 72.5 170.5 50.5 121.5 50.5 121.5 26.5 176.5 26.5 176.5 4.5 98.5 4.5 98.5 118.5 178.5 118.5 178.5 97.5 121.5 97.5 121.5 72.5"/><polygon class="f4b85e2a-e812-4757-91fc-5ee3b488d81f" points="279.5 73.55 200.22 0.5 199.5 0.5 199.5 119.5 222.5 119.5 222.5 51.46 301.41 123.5 302.5 123.5 302.5 4.5 279.5 4.5 279.5 73.55"/><polygon class="f4b85e2a-e812-4757-91fc-5ee3b488d81f" points="351.5 72.5 400.5 72.5 400.5 50.5 351.5 50.5 351.5 26.5 406.5 26.5 406.5 4.5 328.5 4.5 328.5 118.5 408.5 118.5 408.5 97.5 351.5 97.5 351.5 72.5"/><path class="f4b85e2a-e812-4757-91fc-5ee3b488d81f" d="M512.29,23.24A51.93,51.93,0,0,0,492.85,9.61Q480.78,4.5,463.58,4.5H429.5v114h39.65a63.55,63.55,0,0,0,22-3.79,54.74,54.74,0,0,0,18.27-11,52.05,52.05,0,0,0,12.47-17.35,55,55,0,0,0,4.57-22.85,68.68,68.68,0,0,0-3.41-21.22A54.66,54.66,0,0,0,512.29,23.24ZM501.2,77.69a28.48,28.48,0,0,1-7.76,11,34.35,34.35,0,0,1-12,6.61,50.54,50.54,0,0,1-15.54,2.25H452.5v-71h18.33A38,38,0,0,1,480.31,28a32.92,32.92,0,0,1,10.95,5.36,30.34,30.34,0,0,1,9,10.95q3.66,7.07,3.65,18.25A39.37,39.37,0,0,1,501.2,77.69Z"/><rect class="f4b85e2a-e812-4757-91fc-5ee3b488d81f" x="546.5" y="4.5" width="22" height="114"/><path class="f4b85e2a-e812-4757-91fc-5ee3b488d81f" d="M662.49,95.48a37.85,37.85,0,0,1-15.65,2.94,36.24,36.24,0,0,1-14.18-2.63,30.24,30.24,0,0,1-10.77-7.52,33.29,33.29,0,0,1-6.9-11.7,45,45,0,0,1-2.4-15,38.17,38.17,0,0,1,2.63-14.33,37.39,37.39,0,0,1,7.21-11.55A32.66,32.66,0,0,1,633,28a29.73,29.73,0,0,1,12.47-2.71,33,33,0,0,1,14.8,3.18,64.4,64.4,0,0,1,10.31,6.12l8.83-21.23A70.15,70.15,0,0,0,665,6.68a61.37,61.37,0,0,0-20.3-3.1A57.42,57.42,0,0,0,622,7.92a51,51,0,0,0-17.59,12.24,54.49,54.49,0,0,0-11.31,18.76,69.09,69.09,0,0,0-3.95,23.86,61.22,61.22,0,0,0,3.87,21.85,54.75,54.75,0,0,0,11.24,18.13,52.68,52.68,0,0,0,18,12.48,64.22,64.22,0,0,0,24.1,4.88,56.88,56.88,0,0,0,16.12-1.86,62.75,62.75,0,0,0,12.32-4.65,43.19,43.19,0,0,0,6.9-4.18l-9.3-20.15A35.77,35.77,0,0,1,662.49,95.48Z"/><polygon class="f4b85e2a-e812-4757-91fc-5ee3b488d81f" points="693.5 26.5 720.5 26.5 720.5 118.5 742.5 118.5 742.5 26.5 770.5 26.5 770.5 4.5 693.5 4.5 693.5 26.5"/><path class="f4b85e2a-e812-4757-91fc-5ee3b488d81f" d="M889,39.69A59.83,59.83,0,0,0,876.27,21,60.93,60.93,0,0,0,857.6,8.23a57,57,0,0,0-45.1,0A59.1,59.1,0,0,0,794,21a60,60,0,0,0-12.47,18.67A56.27,56.27,0,0,0,777,62a57,57,0,0,0,4.5,22.62,58.33,58.33,0,0,0,31,31,58.87,58.87,0,0,0,45.1,0,60.18,60.18,0,0,0,18.67-12.48A58,58,0,0,0,889,84.63,56.17,56.17,0,0,0,893.55,62,55.47,55.47,0,0,0,889,39.69Zm-21.31,36.5a37.57,37.57,0,0,1-7.28,11.62A32.87,32.87,0,0,1,835.9,98.42a34.57,34.57,0,0,1-25.33-10.61A36.51,36.51,0,0,1,800.26,62a39,39,0,0,1,2.63-14.42,36,36,0,0,1,7.44-11.7,34.41,34.41,0,0,1,11.16-7.82,34.21,34.21,0,0,1,38.67,7.82A37.84,37.84,0,0,1,870.31,62,37.76,37.76,0,0,1,867.67,76.19Z"/></g></svg>